<svg width="32" height="32" viewBox="0 0 32 32" fill="none" xmlns="http://www.w3.org/2000/svg">
<g clip-path="url(#clip0_573_22)">
<path d="M29.8044 13.4014L3.72054 0.211883C3.72054 0.211883 2.01606 4.88162e-05 1.31301 0.448269C0.537794 0.942445 0.269531 2.59549 0.269531 2.59549V28.9746C0.269531 28.9746 0.509815 30.9399 1.31285 31.4379C2.21954 32 4.3627 31.1994 4.3627 31.1994L30.0452 18.1687C30.0452 18.1687 31.7306 17.1358 31.7306 15.7056C31.7306 14.2754 29.8044 13.4014 29.8044 13.4014Z" fill="#FFDA1C"/>
<path d="M10.2216 14.5119V11.4926H12.3886V14.5119H15.5186V16.6572H12.3886V19.597H10.2216V16.6572H7.01123V14.5119H10.2216Z" fill="black"/>
</g>
<defs>
<clipPath id="clip0_573_22">
<rect width="32" height="32" fill="white"/>
</clipPath>
</defs>
</svg>
