<svg width="32" height="32" viewBox="0 0 32 32" fill="none" xmlns="http://www.w3.org/2000/svg">
<path d="M29.6312 13.982C29.8823 14.3468 29.944 14.7846 29.944 15.2479C29.9421 19.5871 29.9488 23.9264 29.9454 28.2661C29.9454 28.6745 29.9068 29.0849 29.8626 29.4914C29.8229 29.8574 29.6461 30.1543 29.3408 30.3519C29.0548 30.5368 28.7685 30.7233 28.471 30.8858C27.9325 31.1804 27.3828 31.453 26.8428 31.744C26.513 31.9216 26.1668 32.0004 25.798 32C19.6555 31.9958 13.5133 31.9923 7.37074 31.9892C7.0907 31.9892 6.81104 31.9942 6.53101 31.9938C5.9494 31.9938 5.42944 31.7989 4.98153 31.4213C4.72675 31.2067 4.48237 30.9715 4.26733 30.7152C3.89928 30.277 3.70244 29.7636 3.70318 29.1683C3.70838 24.4522 3.70838 19.7365 3.70986 15.0205C3.70986 14.7468 3.71135 14.4727 3.70578 14.1989C3.69761 13.7669 3.7834 13.367 4.05044 13.0222C4.09612 12.9636 4.13214 12.8972 4.15777 12.8574C3.95462 12.5802 3.74849 12.3246 3.56985 12.0498C3.16131 11.4209 2.98081 10.7163 3.00161 9.96198C3.01646 9.41532 3.05509 8.86944 3.09112 8.32355C3.12194 7.85642 3.27941 7.42365 3.44989 6.99629C3.78117 6.16704 4.23614 5.41384 4.82109 4.75793C5.35739 4.15646 5.91523 3.57197 6.49907 3.02107C6.83704 2.70218 7.23926 2.45472 7.6244 2.19375C7.96126 1.96559 8.30963 1.75442 8.66172 1.55174C9.29607 1.18614 9.95752 0.882701 10.6524 0.662648C11.4245 0.418275 12.2052 0.211349 13.0086 0.113676C14.0087 -0.00793143 15.013 -0.0195129 16.0173 0.021023C16.6167 0.0449585 17.2176 0.0580841 17.8119 0.175059C18.6705 0.344538 19.5054 0.601652 20.3296 0.89544C20.9583 1.11935 21.5882 1.3479 22.1955 1.62702C22.939 1.96868 23.6777 2.3281 24.3667 2.78403C24.7967 3.06855 25.2387 3.33493 25.6617 3.63026C26.3518 4.11206 27.0396 4.60197 27.6301 5.21464C28.3421 5.95316 28.9765 6.75886 29.5276 7.63714C29.9659 8.33552 30.3269 9.07327 30.6333 9.83959C30.8684 10.4272 31.0243 11.0375 30.9969 11.6849C30.9727 12.2594 30.8104 12.7783 30.419 13.1967C30.1683 13.4647 29.9001 13.7152 29.6305 13.9828L29.6312 13.982ZM7.51187 12.2899C7.82161 12.6536 8.16293 12.9809 8.56255 13.2353C8.74751 13.3531 8.94398 13.4511 9.13562 13.5581C9.26784 13.6399 9.39374 13.7384 9.53413 13.7998C9.75326 13.8951 9.97944 13.9781 10.2086 14.043C11.3076 14.3538 12.4303 14.5024 13.5668 14.5406C14.1164 14.5587 14.6669 14.5723 15.2169 14.5707C15.8661 14.5684 16.5149 14.5476 17.1641 14.5344C17.6718 14.5039 18.1833 14.5032 18.6861 14.4352C19.3034 14.3518 19.9203 14.2399 20.5253 14.0889C21.1556 13.9322 21.7338 13.626 22.2783 13.2612C22.5851 13.0554 22.9112 12.8698 23.1444 12.5648C23.2339 12.4478 23.3063 12.3161 23.3865 12.1915C23.5507 12.1397 23.7145 12.088 23.8786 12.0363C24.0227 12.0324 24.1669 12.0285 24.311 12.0247C24.4346 12.0247 24.5587 12.0251 24.6824 12.0254C25.0341 12.0243 25.3862 12.0235 25.7379 12.0224C25.8459 12.0444 25.9536 12.066 26.0617 12.088C26.4209 12.2405 26.78 12.393 27.1392 12.5458C27.2543 12.5825 27.3691 12.6196 27.4842 12.6563C27.6365 12.8111 27.8452 12.8354 28.0316 12.9099C28.1449 12.9589 28.2585 13.0076 28.3718 13.0574C28.5118 13.1188 28.6437 13.1149 28.7603 13.0033C28.9768 12.7956 29.2186 12.6088 29.4017 12.3725C29.6505 12.0517 29.7661 11.6649 29.6936 11.246C29.6012 10.7117 29.3857 10.2226 29.1525 9.74192C29.135 9.70563 29.0998 9.67822 29.0726 9.64695C29.0623 9.59831 29.0593 9.54581 29.04 9.50102C28.796 8.92696 28.465 8.40385 28.1163 7.89773C27.6862 7.27425 27.1993 6.69941 26.6719 6.15662C26.1876 5.6586 25.6402 5.25402 25.0831 4.8641C24.1903 4.23907 23.2751 3.64841 22.2887 3.189C21.921 3.01798 21.5663 2.8153 21.1938 2.65817C20.1194 2.20456 19.0066 1.87101 17.8887 1.55753C17.2447 1.37724 16.5822 1.31354 15.9151 1.29848C15.6202 1.29192 15.3257 1.27532 15.0308 1.26335C14.867 1.273 14.7033 1.28883 14.5395 1.29192C13.7807 1.30659 13.0349 1.40928 12.297 1.59922C11.5141 1.80074 10.7486 2.04705 10.0062 2.37828C9.28418 2.70025 8.62086 3.12685 7.96275 3.56193C7.37185 3.95223 6.85004 4.43635 6.37056 4.96756C6.18486 5.17333 5.99508 5.37524 5.82015 5.59066C5.27976 6.25467 4.86083 6.9959 4.54997 7.80276C4.4898 7.95911 4.45489 8.12589 4.40846 8.28765C4.39361 8.32548 4.36984 8.36254 4.36575 8.40192C4.32638 8.76558 4.30484 9.13195 4.24876 9.49253C4.2042 9.77898 4.25656 10.0515 4.30262 10.326C4.38767 10.8337 4.61793 11.2773 4.91171 11.6819C5.11412 11.9606 5.39118 12.1166 5.7429 12.0837C5.82758 12.0837 5.91188 12.0837 5.99656 12.0837L6.01848 12.0884L6.04039 12.0822C6.12284 12.0849 6.20566 12.0876 6.28848 12.0903C6.58114 12.0872 6.87418 12.0841 7.16684 12.0806C7.32134 12.081 7.43425 12.1552 7.51261 12.2907L7.51187 12.2899ZM7.83276 14.3842C7.78039 14.3445 7.72802 14.3051 7.67566 14.2653C7.45727 14.0696 7.23926 13.8739 7.02088 13.6782C6.9726 13.6214 6.91986 13.5681 6.87641 13.5079C6.77316 13.3639 6.63908 13.3168 6.46972 13.338C6.20975 13.3701 5.9468 13.3813 5.68793 13.4203C5.27382 13.4828 5.0365 13.7426 4.95776 14.1935C4.94365 14.3707 4.91728 14.5479 4.91728 14.7255C4.91431 18.0545 4.91431 21.3831 4.91468 24.712C4.91468 26.0814 4.90799 27.4503 4.92062 28.8197C4.92694 29.53 5.38896 30.2651 6.12692 30.5318L6.19415 30.5631C6.22349 30.5712 6.25283 30.5797 6.28217 30.5878C6.31039 30.6032 6.33714 30.6229 6.36685 30.6341C6.62757 30.733 6.90018 30.7295 7.17167 30.7295C11.1404 30.7299 15.1092 30.7303 19.078 30.7306C21.1448 30.7306 23.2112 30.7291 25.2781 30.7322C25.6558 30.733 26.0086 30.6561 26.347 30.4739C27.0337 30.1041 27.7252 29.7443 28.4194 29.3899C28.5857 29.3049 28.6819 29.1872 28.692 28.9992C28.7079 28.7093 28.7284 28.4186 28.7284 28.1282C28.7284 23.9171 28.7261 19.7064 28.7217 15.4953C28.7217 15.3598 28.7105 15.2189 28.6745 15.0896C28.5779 14.7425 28.4182 14.4572 28.055 14.3213C27.4749 14.1044 26.9085 13.8496 26.3325 13.621C26.0877 13.5237 25.8378 13.4152 25.5815 13.3793C25.2008 13.3257 24.812 13.3357 24.4272 13.3102C24.2831 13.3006 24.181 13.3512 24.0833 13.46C23.6428 13.9515 23.1514 14.3727 22.5658 14.6726C22.0046 14.9602 21.4493 15.2618 20.8343 15.4054C19.9504 15.6119 19.0568 15.754 18.1491 15.7891C17.5326 15.813 16.9164 15.8717 16.2999 15.8698C15.2878 15.8663 14.2761 15.8181 13.2641 15.8038C12.4637 15.7926 11.6712 15.7127 10.883 15.5729C10.2246 15.4559 9.57276 15.3119 8.96775 15.007C8.58409 14.8135 8.21233 14.595 7.83536 14.3873L7.83276 14.3854V14.3842Z" fill="#030202"/>
<path d="M7.02056 13.6782C7.23895 13.8739 7.45696 14.0696 7.67534 14.2654C7.68908 14.3603 7.73736 14.4055 7.83244 14.3843L7.83504 14.3862C7.87107 14.4572 7.89112 14.5476 7.94572 14.5962C8.13216 14.7622 8.3264 14.9197 8.5251 15.0695C8.98749 15.4177 9.50262 15.6687 10.0345 15.8686C10.4638 16.03 10.9132 16.142 11.3611 16.2404C11.7518 16.3261 12.1525 16.364 12.5492 16.4199C12.7676 16.4508 12.9863 16.4852 13.2062 16.5006C13.5661 16.5257 13.9267 16.5396 14.287 16.5531C14.8036 16.5728 15.3202 16.5944 15.8372 16.6037C16.6747 16.6188 17.5096 16.5713 18.3452 16.5134C18.8678 16.4775 19.3933 16.4952 19.9137 16.4037C20.3081 16.3342 20.7081 16.2968 21.1014 16.2211C21.504 16.1439 21.9069 16.0516 22.2795 15.8679C22.7541 15.6335 23.2276 15.3957 23.6911 15.1382C24.1153 14.9027 24.4588 14.5564 24.7905 14.1982C25.0531 13.9148 25.5117 13.9144 25.7821 14.192C25.9793 14.3947 26.0595 14.6479 26.0562 14.9348C26.0287 17.1492 26.0685 19.3636 26.0191 21.5788C25.9652 23.9994 26.0072 26.4223 26.0024 28.844C26.0016 29.1332 25.9712 29.4219 25.9526 29.7107C25.9504 29.7439 25.9377 29.7767 25.9284 29.8095C25.7743 30.3585 25.4631 30.5303 24.9431 30.5693C24.6921 30.5882 24.4369 30.5272 24.1836 30.5291C20.4147 30.5565 16.6461 30.4898 12.8771 30.5639C11.061 30.5998 9.24153 30.6338 7.42427 30.5291C7.1123 30.5114 6.79847 30.523 6.48575 30.5291C6.41741 30.5303 6.34982 30.5662 6.28185 30.5863C6.25251 30.5782 6.22317 30.5697 6.19383 30.5616C6.17155 30.5511 6.14889 30.5407 6.12661 30.5303C5.38864 30.2639 4.92662 29.5289 4.92031 28.8181C4.90768 27.4492 4.91437 26.0798 4.91437 24.7105C4.91437 21.3815 4.91437 18.053 4.91697 14.724C4.91697 14.5468 4.94333 14.3692 4.95745 14.192C4.98939 14.1661 5.02727 14.1453 5.05215 14.1136C5.21594 13.9055 5.42318 13.7893 5.68353 13.7724C6.12921 13.743 6.57489 13.709 7.02056 13.677V13.6782ZM11.2318 20.6125C11.2211 20.5951 11.2103 20.5778 11.1999 20.56C11.1416 20.4778 11.0877 20.3913 11.0239 20.3141C10.6306 19.8392 10.1344 19.618 9.53456 19.7184C8.68257 19.8609 8.10133 20.6449 8.1485 21.5514C8.1771 22.105 8.41554 22.5439 8.81405 22.8987C8.82519 22.908 8.83596 22.9176 8.8471 22.9269L8.85787 22.9342C8.91024 23.0072 8.94998 23.0983 9.0172 23.1504C9.4302 23.4716 9.8885 23.6168 10.4025 23.4844C10.8192 23.3771 11.1505 23.1257 11.38 22.7555C11.7191 22.2088 11.757 21.622 11.5186 21.0202C11.4699 20.897 11.4231 20.765 11.2824 20.7152V20.714C11.2653 20.6804 11.2486 20.6465 11.2322 20.6129V20.6125H11.2318ZM14.1395 24.209L14.1473 24.2129C14.2413 24.4735 14.4467 24.5622 14.6885 24.5646C15.3287 24.5711 15.9694 24.5669 16.6101 24.5665C17.0706 24.5665 17.3038 24.3766 17.4127 23.9141C17.4806 23.6245 17.4383 23.5106 17.1965 23.3361C17.1828 23.3056 17.1701 23.2744 17.1557 23.2443C17.078 23.0837 16.9529 22.9999 16.7798 23.0072C16.606 23.0145 16.4912 23.1138 16.4259 23.2786C16.4077 23.3246 16.3887 23.3705 16.3612 23.4384C15.845 23.4384 15.3295 23.4342 14.8136 23.4408C14.6379 23.4431 14.5057 23.4292 14.437 23.2141C14.3783 23.0311 14.1811 22.9613 14.0084 23.0064C13.8305 23.0532 13.6976 23.2002 13.7109 23.3925C13.7221 23.5488 13.7629 23.7129 13.8313 23.8519C13.8925 23.9762 14.0092 24.0712 14.1013 24.1789C14.1139 24.1885 14.1269 24.1986 14.1395 24.2082V24.209ZM20.3426 22.9397L20.3604 22.9512C20.3352 23.0717 20.4318 23.1122 20.4979 23.1647C21.1374 23.6689 22.07 23.5639 22.6126 22.9964C23.1541 22.4304 23.2314 21.4668 22.8626 20.8187C22.838 20.7758 22.7786 20.7542 22.7355 20.7225L22.7363 20.7241C22.7259 20.7032 22.7155 20.6828 22.7055 20.6619C22.6226 20.5349 22.5484 20.4002 22.4548 20.282C22.1877 19.9442 21.8438 19.7404 21.4245 19.6856C20.3144 19.5404 19.4423 20.5585 19.6017 21.7027C19.67 22.193 19.9118 22.5787 20.2735 22.8906C20.2966 22.9072 20.3192 22.9234 20.3422 22.94L20.3426 22.9397ZM23.3695 24.0538C23.2132 24.0538 23.0561 24.0631 22.9004 24.0519C22.59 24.0299 22.2575 24.3279 22.249 24.6842C22.2401 25.0649 22.4837 25.3637 22.8577 25.3834C23.1942 25.4008 23.534 25.4085 23.8694 25.3811C24.2245 25.3525 24.5075 25.1182 24.4759 24.6348C24.4544 24.2997 24.1832 24.0573 23.8137 24.0542C23.6655 24.053 23.5173 24.0542 23.3691 24.0542L23.3695 24.0538ZM7.4473 25.439C7.57878 25.439 7.71025 25.434 7.84135 25.4401C8.06159 25.451 8.23392 25.3664 8.38508 25.1989C8.57115 24.9931 8.60235 24.7696 8.50801 24.5163C8.41554 24.2688 8.23244 24.1248 7.98694 24.1113C7.62669 24.0916 7.2642 24.0963 6.9032 24.1098C6.63914 24.1194 6.46272 24.2905 6.36319 24.531C6.2618 24.7757 6.34239 25.078 6.53069 25.256C6.66477 25.383 6.82707 25.4336 7.00385 25.4382C7.15167 25.4425 7.29948 25.439 7.4473 25.439Z" fill="#FDFAEB"/>
<path d="M28.031 12.9091C27.8442 12.8342 27.6358 12.8103 27.4835 12.6555C27.4858 12.4077 27.4943 12.1594 27.4884 11.9116C27.4828 11.6722 27.3866 11.4827 27.1656 11.3823C26.8046 11.2182 26.4421 11.0584 26.0822 10.8924C26.0102 10.8592 25.9315 10.819 25.8828 10.7584C25.6031 10.4098 25.2551 10.3276 24.8407 10.4226C24.7096 10.4527 24.5599 10.4461 24.428 10.4144C24.0373 10.3206 23.6518 10.2029 23.263 10.1006C22.2531 9.8342 21.2232 9.69059 20.1896 9.574C19.6526 9.51339 19.1144 9.46475 18.5759 9.42151C18.0448 9.37904 17.513 9.34661 16.9815 9.31689C16.5718 9.29411 16.1618 9.26863 15.7518 9.26902C15.2103 9.26979 14.6684 9.28948 14.1273 9.3111C13.4807 9.33696 12.8348 9.36939 12.1923 9.46166C11.7388 9.5269 11.2776 9.54157 10.8278 9.62573C10.2488 9.7346 9.67052 9.86432 9.10525 10.0319C8.20535 10.2986 7.32699 10.6372 6.46906 11.0263C6.03564 11.2228 5.6349 11.4707 5.74187 12.0818C5.39015 12.115 5.11309 11.9591 4.91068 11.6803C4.6169 11.2757 4.38663 10.8322 4.30158 10.3245C4.25553 10.05 4.20353 9.77745 4.24773 9.491C4.30381 9.13042 4.32535 8.76406 4.36472 8.40039C4.36881 8.36101 4.39295 8.32434 4.4078 8.28612C4.52591 8.08382 4.66741 7.89195 4.75729 7.67692C5.04512 6.98858 5.43695 6.37437 5.92199 5.8223C6.43861 5.23434 7.01651 4.71085 7.64305 4.26071C8.30303 3.78663 9.00757 3.37895 9.69577 2.94812C9.89224 2.82496 10.1002 2.72189 10.303 2.60916C10.8913 2.28178 11.5023 2.00266 12.1581 1.87411C13.0889 1.69189 14.0092 1.44674 14.954 1.34405C14.9819 1.34096 15.0049 1.29039 15.0302 1.26221C15.3251 1.27417 15.6196 1.29039 15.9145 1.29734C16.5811 1.31278 17.2437 1.37609 17.8881 1.55638C19.006 1.86947 20.1187 2.20341 21.1931 2.65703C21.566 2.81415 21.9207 3.01683 22.288 3.18786C23.2748 3.64726 24.1896 4.23793 25.0824 4.86296C25.6395 5.25287 26.187 5.65707 26.6713 6.15547C27.1987 6.69827 27.6856 7.27311 28.1156 7.89659C28.4648 8.40232 28.7957 8.92581 29.0393 9.49988C29.0583 9.54466 29.0612 9.59678 29.072 9.64581C29.0872 9.79753 29.1095 9.94848 29.1166 10.1006C29.1396 10.6144 29.1273 11.124 28.9193 11.6058C28.9026 11.6444 28.8889 11.6853 28.8796 11.7267C28.8339 11.9297 28.744 12.1034 28.5955 12.2478C28.4454 12.3934 28.3002 12.5451 28.1602 12.7011C28.1067 12.7605 28.0733 12.8393 28.031 12.9091ZM10.8783 4.2553C10.8616 4.59619 11.0651 4.79964 11.2646 5.00657C11.363 5.10887 11.4755 5.16022 11.6174 5.15674C11.8644 5.15095 12.1117 5.16254 12.3583 5.1525C12.5006 5.14671 12.6094 5.17219 12.6918 5.30769C12.7981 5.48258 12.9607 5.53238 13.1594 5.52041C13.422 5.50497 13.6861 5.515 13.9494 5.51771C14.0114 5.51848 14.0731 5.53354 14.1377 5.5428C14.1425 5.62349 14.1496 5.68294 14.1496 5.74201C14.1485 5.98985 14.225 6.21338 14.3605 6.41181C14.5098 6.63032 14.6948 6.78783 14.9808 6.74845C15.0859 6.73417 15.1947 6.74498 15.3017 6.74652C15.4974 6.74923 15.6523 6.65734 15.7748 6.51026C15.9356 6.31723 16.0211 6.08984 16.0263 5.83157C16.0285 5.73274 16.0352 5.6343 16.0393 5.54782C16.0842 5.53199 16.0994 5.52195 16.115 5.52195C16.4359 5.51964 16.7579 5.50304 17.0777 5.52195C17.2857 5.53431 17.4346 5.45864 17.5334 5.28723C17.601 5.16948 17.6875 5.1525 17.8008 5.15404C18.0641 5.1579 18.3278 5.15713 18.5911 5.15404C18.6554 5.15327 18.7378 5.1579 18.7802 5.12084C18.993 4.93438 19.2221 4.75254 19.2979 4.45528C19.3365 4.30356 19.409 4.21592 19.5423 4.13833C19.8153 3.97966 20.0162 3.74995 20.0686 3.40791C20.1243 3.04347 19.9252 2.78945 19.572 2.78945C18.5429 2.78906 17.5137 2.79408 16.4846 2.78481C16.3003 2.78327 16.1666 2.83693 16.0627 2.98749C16.0456 3.0122 16.0259 3.03459 15.9824 3.0898C15.9702 2.79524 16.0136 2.53079 15.8372 2.3173C15.6679 2.1123 15.4818 1.93549 15.2018 1.92159C15.0101 1.91194 14.8084 1.91387 14.6536 2.02698C14.5039 2.13662 14.3583 2.28487 14.2762 2.45126C14.1964 2.61302 14.1997 2.81879 14.1596 3.0427C14.0552 2.77979 13.8606 2.78674 13.6586 2.7879C12.6707 2.79215 11.6828 2.78945 10.6948 2.78945C10.6291 2.78945 10.5626 2.78481 10.4972 2.79138C10.3435 2.80721 10.1804 2.94387 10.1496 3.07706C10.0586 3.46929 10.248 3.90824 10.5942 4.1032C10.6807 4.15223 10.7695 4.1974 10.8787 4.25569L10.8783 4.2553ZM7.85809 9.635C8.01668 9.64272 8.01594 9.64156 8.14815 9.55393C8.55818 9.28176 8.99271 9.05784 9.45288 8.89879C10.5359 8.5247 11.646 8.27183 12.7795 8.12359C13.3982 8.0429 14.0166 7.97457 14.6406 7.97496C14.7063 7.97496 14.772 7.96801 14.8378 7.96646C15.3054 7.95488 15.7733 7.92824 16.2406 7.93789C16.6409 7.94639 17.0405 7.99542 17.4405 8.02862C17.6608 8.04715 17.8833 8.05603 18.1009 8.09309C18.6416 8.18458 19.1846 8.26913 19.7191 8.39344C20.5339 8.583 21.3469 8.78567 22.1514 9.01808C22.6405 9.15938 23.1114 9.36707 23.5916 9.54234C23.6396 9.55972 23.6945 9.55702 23.7465 9.56358C23.7528 9.54814 23.7595 9.53269 23.7658 9.51764C23.6863 9.46513 23.6102 9.4053 23.5263 9.3609C22.6156 8.87717 21.6607 8.5193 20.6632 8.2865C19.8409 8.09425 19.0179 7.90354 18.1767 7.81822C17.6638 7.7661 17.1505 7.68348 16.6368 7.67769C15.7005 7.66727 14.7639 7.69506 13.8279 7.72556C13.4361 7.7383 13.0428 7.78077 12.6551 7.84215C12.1541 7.92168 11.6553 8.02051 11.1609 8.13517C10.6336 8.25716 10.0984 8.35638 9.60032 8.5884C9.23301 8.75942 8.8657 8.93083 8.50656 9.11961C8.332 9.21149 8.17378 9.33928 8.01371 9.45857C7.95837 9.49988 7.91937 9.56435 7.85846 9.63461L7.85809 9.635Z" fill="#134967"/>
<path d="M6.28174 30.5871C6.3497 30.567 6.4173 30.5315 6.48564 30.5299C6.79835 30.5237 7.11219 30.5118 7.42416 30.5299C9.24141 30.6342 11.0605 30.6002 12.877 30.5647C16.646 30.4905 20.4149 30.5569 24.1835 30.5299C24.4368 30.528 24.6923 30.589 24.943 30.5701C25.463 30.5311 25.7746 30.3597 25.9283 29.8103C25.9376 29.7775 25.9503 29.7447 25.9525 29.7115C25.9711 29.4227 26.0015 29.1336 26.0022 28.8448C26.0071 26.4231 25.9651 24.0002 26.019 21.5796C26.068 19.3644 26.0286 17.15 26.0561 14.9356C26.0598 14.6483 25.9796 14.3955 25.782 14.1928C25.512 13.9152 25.053 13.9156 24.7904 14.199C24.4583 14.5572 24.1152 14.9035 23.691 15.139C23.2279 15.3965 22.754 15.6347 22.2793 15.8687C21.9068 16.0524 21.5039 16.1447 21.1013 16.2219C20.708 16.2976 20.3083 16.335 19.9135 16.4045C19.3932 16.496 18.8677 16.4779 18.3451 16.5141C17.5095 16.5721 16.6742 16.6192 15.8371 16.6045C15.3201 16.5952 14.8035 16.5736 14.2869 16.5539C13.9266 16.5404 13.566 16.5265 13.2061 16.5014C12.9862 16.486 12.7675 16.4516 12.5491 16.4207C12.1524 16.3647 11.7517 16.3273 11.361 16.2412C10.9131 16.1428 10.4637 16.0308 10.0343 15.8694C9.50251 15.6698 8.98738 15.4185 8.52498 15.0703C8.32629 14.9205 8.13204 14.763 7.9456 14.597C7.89101 14.5483 7.87095 14.458 7.83493 14.387C8.2119 14.5943 8.58366 14.8128 8.96732 15.0066C9.57233 15.312 10.2241 15.456 10.8826 15.5726C11.6707 15.7123 12.4633 15.7922 13.2637 15.8034C14.2757 15.8177 15.2874 15.866 16.2995 15.8694C16.9156 15.8714 17.5321 15.8127 18.1487 15.7887C19.0564 15.7536 19.9499 15.6112 20.8339 15.405C21.4485 15.2614 22.0041 14.9603 22.5653 14.6723C23.1506 14.3719 23.6424 13.9507 24.0829 13.4597C24.1805 13.3508 24.283 13.3002 24.4268 13.3099C24.8115 13.3354 25.2004 13.3253 25.5811 13.379C25.8373 13.4153 26.0869 13.5238 26.332 13.6207C26.9081 13.8492 27.4748 14.104 28.0546 14.321C28.4178 14.4569 28.5775 14.7421 28.6741 15.0892C28.7101 15.2185 28.7213 15.3594 28.7213 15.495C28.7257 19.7061 28.7283 23.9168 28.7279 28.1279C28.7279 28.4182 28.7075 28.7085 28.6915 28.9988C28.6811 29.1868 28.5849 29.3046 28.4189 29.3895C27.7248 29.7439 27.0332 30.1041 26.3465 30.4736C26.0082 30.6558 25.6554 30.7326 25.2776 30.7318C23.2108 30.7287 21.1444 30.7303 19.0775 30.7303C15.1088 30.7303 11.14 30.7295 7.17124 30.7291C6.89937 30.7291 6.62714 30.7326 6.36642 30.6338C6.33671 30.6226 6.30996 30.6033 6.28174 30.5874V30.5871Z" fill="#F7DBC6"/>
<path d="M17.1638 14.534C16.5146 14.5468 15.8657 14.568 15.2165 14.5703C14.6665 14.5722 14.1164 14.5587 13.5664 14.5402C12.4299 14.5024 11.3072 14.3537 10.2082 14.0426C9.97907 13.9777 9.75289 13.8943 9.53376 13.7994C9.393 13.7384 9.26747 13.6395 9.13525 13.5577C9.28158 13.304 9.40637 13.0338 9.57833 12.801C9.90739 12.3555 10.3126 11.9857 10.7575 11.6521C10.7274 11.6374 10.7059 11.627 10.6847 11.6162C10.8292 11.5985 10.974 11.5849 11.1178 11.5625C12.037 11.4182 12.9644 11.366 13.891 11.3298C15.1567 11.28 16.4236 11.3054 17.6886 11.3761C17.9263 11.3892 18.1643 11.4062 18.4009 11.4328C19.0943 11.5108 19.7877 11.5919 20.4804 11.6776C20.7808 11.715 21.0798 11.7672 21.3791 11.8127C21.3108 11.8575 21.231 11.8903 21.176 11.9486C20.7752 12.3729 20.3025 12.6949 19.813 12.9925C19.4092 13.238 19.0022 13.4785 18.5907 13.7102C18.1866 13.9376 17.7743 14.1484 17.3684 14.3715C17.2934 14.4128 17.2314 14.4792 17.1634 14.534H17.1638Z" fill="#2A79AC"/>
<path d="M6.28727 12.0895C6.20482 12.0868 6.122 12.0841 6.03955 12.0814C6.08858 11.8629 6.22599 11.7143 6.41726 11.6394C6.84697 11.4711 7.27779 11.3024 7.7179 11.1676C8.29877 10.9897 8.89486 10.8642 9.4735 10.6797C10.1379 10.4677 10.8235 10.4237 11.505 10.3411C11.7569 10.3106 12.0116 10.3025 12.2646 10.2793C12.7697 10.233 13.2736 10.1708 13.7795 10.1399C14.0952 10.1206 14.4131 10.0585 14.7314 10.1314C14.786 10.1438 14.8461 10.1334 14.9037 10.1295C15.0994 10.116 15.2955 10.0886 15.4913 10.0898C15.7119 10.0909 15.9321 10.126 16.1527 10.1318C16.9739 10.1538 17.7951 10.167 18.6162 10.1901C18.8617 10.1971 19.1072 10.2183 19.3512 10.2457C19.8957 10.3067 20.4383 10.3862 20.9835 10.4388C21.6372 10.5017 22.2767 10.6391 22.9155 10.787C23.3865 10.8962 23.8574 11.0047 24.3283 11.114C24.3042 11.2838 24.28 11.4541 24.2559 11.6239C23.9424 11.5676 23.626 11.5247 23.3159 11.4525C22.6782 11.3039 22.0427 11.1472 21.3958 11.0476C20.9679 10.9819 20.5404 10.914 20.1115 10.8561C19.8927 10.8264 19.671 10.8213 19.4519 10.7962C19.0545 10.7511 18.6586 10.682 18.26 10.6542C17.7527 10.619 17.2435 10.6163 16.7355 10.5963C16.6378 10.5924 16.5412 10.5669 16.4435 10.5642C16.3054 10.5604 16.1668 10.5677 16.0283 10.5708C15.8404 10.575 15.6525 10.5858 15.4649 10.582C15.277 10.5781 15.0894 10.5472 14.9019 10.5507C14.591 10.5569 14.2805 10.5816 13.9696 10.597C13.8876 10.6013 13.8047 10.5963 13.723 10.604C13.3977 10.6341 13.0731 10.6739 12.7474 10.6982C12.4124 10.7233 12.0766 10.7322 11.7413 10.7542C11.5619 10.7657 11.3825 10.7839 11.2046 10.8094C10.8974 10.8538 10.591 10.9028 10.285 10.9557C9.73756 11.0507 9.18047 11.1093 8.6464 11.2568C7.89469 11.4637 7.15969 11.7367 6.41912 11.9853C6.36972 12.0019 6.33147 12.0536 6.28802 12.0888L6.28727 12.0895Z" fill="#FEBD27"/>
<path d="M24.2558 11.6239C24.28 11.4541 24.3041 11.2838 24.3282 11.1139C24.3732 11.0082 24.4185 10.902 24.4731 10.7734C24.2057 10.7005 23.9691 10.6329 23.731 10.5719C22.54 10.2658 21.3381 10.0237 20.1132 9.92064C18.9816 9.82529 17.8514 9.70754 16.7179 9.64693C15.8399 9.59983 14.9579 9.60524 14.078 9.62531C13.4459 9.63959 12.8149 9.71719 12.1832 9.76506C11.2706 9.83455 10.3692 9.97662 9.4842 10.2214C8.54531 10.4808 7.63835 10.8395 6.73214 11.1989C6.55684 11.2684 6.39008 11.3645 6.22407 11.4571C6.06585 11.5456 5.98638 11.6869 5.99566 11.8779C5.999 11.9463 5.99566 12.0146 5.99529 12.0833C5.91061 12.0833 5.8263 12.0833 5.74162 12.0833C5.63466 11.4722 6.0354 11.2244 6.46882 11.0279C7.32675 10.6387 8.20511 10.2998 9.10501 10.0334C9.67064 9.86582 10.2485 9.73572 10.8276 9.62724C11.2773 9.54269 11.7386 9.52841 12.1921 9.46317C12.8346 9.37051 13.4804 9.33847 14.1271 9.31261C14.6682 9.29099 15.2101 9.2713 15.7515 9.27052C16.1616 9.26975 16.5716 9.29562 16.9812 9.3184C17.5131 9.34812 18.0449 9.38055 18.5757 9.42302C19.1142 9.46626 19.6523 9.5149 20.1894 9.57551C21.223 9.6921 22.2529 9.83571 23.2627 10.1021C23.6516 10.2048 24.0371 10.3225 24.4278 10.416C24.5596 10.4476 24.7093 10.4542 24.8404 10.4241C25.2549 10.3291 25.6029 10.4113 25.8826 10.7599C25.9312 10.8205 26.0099 10.8607 26.082 10.8939C26.4419 11.0599 26.8044 11.2201 27.1654 11.3838C27.3863 11.4842 27.4825 11.6737 27.4881 11.9131C27.4937 12.1609 27.4855 12.4092 27.4833 12.657C27.3681 12.6203 27.2534 12.5837 27.1382 12.5466C27.1397 12.3339 27.1464 12.1212 27.139 11.9084C27.1371 11.8498 27.1085 11.7621 27.0666 11.7394C26.7576 11.5706 26.4419 11.4147 26.1139 11.2475C26.1139 11.4216 26.121 11.556 26.1121 11.6888C26.1032 11.8227 26.0786 11.9555 26.0608 12.0887C25.9527 12.0667 25.845 12.0451 25.737 12.0231C25.78 11.7467 25.7886 11.4726 25.6876 11.2058C25.6371 10.9564 25.5442 10.7511 25.253 10.7491C24.9949 10.7221 24.8382 10.8078 24.739 11.0599C24.6878 11.1904 24.6707 11.3355 24.638 11.4737C24.6477 11.6096 24.6569 11.7459 24.6666 11.8818C24.6714 11.9301 24.6766 11.9779 24.6814 12.0262C24.5578 12.0262 24.4337 12.0258 24.31 12.0254C24.2919 11.8918 24.2737 11.7583 24.2555 11.6247L24.2558 11.6239Z" fill="#071531"/>
<path d="M5.99602 12.083C5.99602 12.0147 5.99973 11.946 5.99639 11.8776C5.98673 11.6861 6.06658 11.5448 6.2248 11.4568C6.39081 11.3642 6.5572 11.268 6.73287 11.1986C7.63908 10.8391 8.54567 10.4805 9.48493 10.2211C10.37 9.97668 11.271 9.83423 12.1839 9.76474C12.8156 9.71687 13.4466 9.63927 14.0788 9.62499C14.9582 9.60491 15.8403 9.59951 16.7187 9.6466C17.8518 9.70722 18.9823 9.82496 20.114 9.92032C21.3389 10.0238 22.5407 10.2655 23.7318 10.5716C23.9698 10.633 24.2064 10.7005 24.4738 10.7731C24.4189 10.9021 24.3739 11.0078 24.329 11.1136C23.858 11.0048 23.3871 10.8959 22.9162 10.787C22.2774 10.6388 21.6378 10.5013 20.9842 10.4388C20.439 10.3863 19.8963 10.3068 19.3519 10.2458C19.1079 10.2184 18.862 10.1971 18.6169 10.1902C17.7957 10.167 16.9746 10.1539 16.1534 10.1319C15.9328 10.1261 15.7125 10.0913 15.4919 10.0898C15.2962 10.0886 15.1005 10.116 14.9044 10.1296C14.8468 10.1334 14.7866 10.1442 14.732 10.1315C14.4138 10.0585 14.0958 10.1211 13.7802 10.14C13.2743 10.1709 12.7703 10.233 12.2652 10.2794C12.0123 10.3025 11.7579 10.3102 11.5057 10.3411C10.8242 10.4237 10.1386 10.4677 9.47416 10.6797C8.89552 10.8642 8.29943 10.9897 7.71856 11.1677C7.27846 11.3024 6.84763 11.4711 6.41793 11.6394C6.22666 11.7143 6.08887 11.863 6.04021 12.0815L6.0183 12.0876L5.99639 12.083H5.99602Z" fill="#F8D069"/>
<path d="M24.2555 11.624C24.2737 11.7575 24.2919 11.8911 24.3101 12.0247C24.166 12.0286 24.0219 12.0324 23.8781 12.0363C23.6586 11.9679 23.4417 11.8869 23.2189 11.8328C22.4252 11.641 21.6245 11.4896 20.8134 11.4039C19.7824 11.295 18.7532 11.1576 17.72 11.0839C16.192 10.9746 14.6608 10.9773 13.131 11.075C12.8435 11.0931 12.5546 11.0997 12.2693 11.1375C11.0705 11.2962 9.87196 11.458 8.67494 11.6332C8.15424 11.7097 7.63986 11.8263 7.16595 12.0807C6.87329 12.0838 6.58026 12.0868 6.2876 12.0903C6.33105 12.0548 6.3693 12.0035 6.4187 11.9869C7.15964 11.7382 7.89464 11.4653 8.64598 11.2584C9.18042 11.1113 9.73714 11.0522 10.2846 10.9572C10.5902 10.9044 10.897 10.8549 11.2042 10.8109C11.3821 10.7855 11.5615 10.7673 11.7408 10.7557C12.0758 10.7337 12.412 10.7248 12.747 10.6997C13.0727 10.675 13.3973 10.6357 13.7226 10.6055C13.8043 10.5978 13.8871 10.6028 13.9692 10.5986C14.2801 10.5828 14.5906 10.5581 14.9014 10.5523C15.0886 10.5488 15.2765 10.5797 15.4645 10.5835C15.652 10.5874 15.84 10.5766 16.0279 10.5723C16.1664 10.5693 16.305 10.5619 16.4431 10.5658C16.5404 10.5685 16.6374 10.594 16.735 10.5978C17.2431 10.6175 17.7523 10.6202 18.2596 10.6557C18.6581 10.6835 19.0537 10.7526 19.4514 10.7978C19.6709 10.8229 19.8923 10.8279 20.111 10.8576C20.54 10.9156 20.9675 10.9831 21.3953 11.0491C22.0423 11.1487 22.6778 11.3055 23.3155 11.4541C23.6256 11.5263 23.942 11.5691 24.2555 11.6255V11.624Z" fill="#FBA126"/>
<path d="M17.1636 14.5341C17.2315 14.4792 17.2936 14.4128 17.3686 14.3715C17.7745 14.1484 18.1871 13.9376 18.5909 13.7102C19.0024 13.479 19.4094 13.2385 19.8131 12.9925C20.3023 12.6949 20.7754 12.3729 21.1762 11.9486C21.2311 11.8903 21.311 11.8575 21.3793 11.8127C21.6872 11.8614 21.9966 11.9027 22.303 11.961C22.6655 12.0301 23.0254 12.1135 23.3864 12.1911C23.3061 12.3162 23.2341 12.4474 23.1442 12.5644C22.911 12.869 22.5852 13.0551 22.2781 13.2608C21.7336 13.6257 21.1554 13.9318 20.5251 14.0885C19.9197 14.2391 19.3032 14.3514 18.6859 14.4348C18.1831 14.5028 17.6716 14.5036 17.1639 14.5341H17.1636Z" fill="#368FCB"/>
<path d="M23.3861 12.191C23.0251 12.1138 22.6652 12.03 22.3027 11.9609C21.9963 11.9026 21.6869 11.8617 21.3791 11.8127C21.0797 11.7671 20.7807 11.7146 20.4803 11.6772C19.7876 11.5911 19.0942 11.5104 18.4008 11.4324C18.1642 11.4058 17.9262 11.3892 17.6885 11.3757C16.4231 11.305 15.1567 11.2795 13.8909 11.3293C12.9643 11.3656 12.0369 11.4181 11.1177 11.5621C10.974 11.5845 10.8291 11.5984 10.6846 11.6158C10.0614 11.7061 9.43637 11.786 8.81577 11.8914C8.44586 11.9544 8.08077 12.0516 7.71643 12.1466C7.64178 12.1659 7.5259 12.1605 7.51179 12.2895C7.43342 12.1539 7.32052 12.0798 7.16602 12.0794C7.64029 11.8254 8.15468 11.7084 8.67501 11.632C9.87165 11.4567 11.0705 11.295 12.2694 11.1363C12.5546 11.0985 12.8436 11.0923 13.131 11.0738C14.6608 10.9765 16.1921 10.9734 17.72 11.0826C18.7533 11.1568 19.7824 11.2942 20.8134 11.4027C21.6249 11.4884 22.4257 11.6397 23.219 11.8316C23.4418 11.8856 23.6587 11.9663 23.8782 12.035C23.714 12.0868 23.5503 12.1385 23.3861 12.1902V12.191Z" fill="#0A142F"/>
<path d="M15.0301 1.26296C15.0048 1.29153 14.9818 1.34171 14.9539 1.3448C14.0091 1.44749 13.0888 1.69264 12.1581 1.87486C11.5022 2.00341 10.8912 2.28253 10.3029 2.60991C10.1005 2.72264 9.89215 2.82572 9.69568 2.94887C9.00748 3.37971 8.30294 3.78738 7.64297 4.26146C7.01642 4.7116 6.43889 5.23509 5.92191 5.82306C5.43686 6.37512 5.04503 6.98972 4.7572 7.67767C4.66732 7.8927 4.52582 8.08419 4.40771 8.28687C4.45414 8.12511 4.48905 7.95833 4.54922 7.80198C4.86008 6.99551 5.27901 6.2539 5.8194 5.58988C5.99433 5.37485 6.18448 5.17255 6.36981 4.96678C6.84929 4.43557 7.3711 3.95145 7.962 3.56115C8.62011 3.12645 9.28343 2.69948 10.0054 2.3775C10.7482 2.04627 11.5133 1.79958 12.2962 1.59844C13.0342 1.4085 13.78 1.30581 14.5387 1.29114C14.7025 1.28805 14.8663 1.27261 15.0301 1.26257V1.26296Z" fill="#1F6B9D"/>
<path d="M7.51209 12.2899C7.52657 12.1609 7.64208 12.1663 7.71673 12.147C8.08107 12.0525 8.44579 11.9548 8.81607 11.8919C9.43705 11.7865 10.0617 11.7069 10.6849 11.6162C10.7061 11.6266 10.7277 11.6371 10.7577 11.6521C10.3128 11.9861 9.90761 12.3555 9.57855 12.801C9.40659 13.0338 9.2818 13.304 9.13547 13.5577C8.94383 13.4508 8.74736 13.3527 8.5624 13.2349C8.16278 12.9805 7.82146 12.6532 7.51172 12.2895L7.51209 12.2899Z" fill="#EAF3F7"/>
<path d="M28.0308 12.9091C28.0731 12.8392 28.1065 12.7605 28.16 12.701C28.3 12.545 28.4452 12.3933 28.5953 12.2478C28.7438 12.1038 28.8337 11.9297 28.8794 11.7266C28.8887 11.6853 28.9024 11.6444 28.9191 11.6058C29.1271 11.124 29.1394 10.6144 29.1164 10.1005C29.1097 9.94842 29.087 9.79747 29.0718 9.64575C29.0989 9.67702 29.1338 9.70443 29.1516 9.74072C29.3845 10.2214 29.6003 10.7109 29.6928 11.2448C29.7652 11.6641 29.6497 12.0505 29.4009 12.3713C29.2178 12.6076 28.976 12.7944 28.7594 13.0021C28.6428 13.1137 28.511 13.1176 28.371 13.0562C28.2577 13.0064 28.144 12.9577 28.0308 12.9087V12.9091Z" fill="#015378"/>
<path d="M26.061 12.0876C26.0789 11.9544 26.1034 11.8216 26.1123 11.6876C26.1212 11.5548 26.1141 11.4204 26.1141 11.2463C26.4425 11.4135 26.7578 11.5695 27.0668 11.7382C27.1088 11.7613 27.1373 11.8486 27.1392 11.9073C27.1466 12.1196 27.1396 12.3327 27.1385 12.5454C26.7793 12.3929 26.4202 12.2404 26.061 12.0876Z" fill="#FBA126"/>
<path d="M7.02064 13.6781C6.57496 13.7101 6.12965 13.7441 5.6836 13.7735C5.42325 13.7904 5.21601 13.9067 5.05223 14.1147C5.02734 14.1464 4.98946 14.1672 4.95752 14.1931C5.03626 13.7422 5.27358 13.4824 5.68769 13.4198C5.94655 13.3808 6.2095 13.37 6.46948 13.3376C6.63884 13.3168 6.77291 13.3635 6.87616 13.5075C6.91962 13.5681 6.97198 13.6214 7.02064 13.6777V13.6781Z" fill="#EED7C3"/>
<path d="M24.6818 12.0251C24.677 11.9768 24.6718 11.929 24.667 11.8807C25.122 11.9401 25.3474 11.844 25.4841 11.4773C25.5049 11.4221 25.529 11.3653 25.5635 11.319C25.597 11.2742 25.6456 11.2422 25.688 11.2047C25.789 11.4715 25.7804 11.7456 25.7374 12.022C25.3857 12.0232 25.0336 12.0239 24.6818 12.0251Z" fill="#FBA126"/>
<path d="M7.83288 14.3843C7.7378 14.4055 7.68915 14.3604 7.67578 14.2654C7.72815 14.3051 7.78051 14.3445 7.83288 14.3843Z" fill="#F7DBC6"/>
<path d="M8.81421 22.8987C8.4157 22.5439 8.17764 22.1049 8.14867 21.5513C8.1015 20.6449 8.68311 19.8608 9.53473 19.7183C10.1345 19.618 10.6304 19.8392 11.024 20.314C11.0879 20.3912 11.1418 20.4777 11.2001 20.5599C11.2108 20.5773 11.2216 20.5947 11.232 20.6124C11.2487 20.6468 11.2651 20.6804 11.2818 20.714L11.2822 20.7151C11.3809 21.068 11.4511 21.4201 11.3854 21.7942C11.216 22.7601 10.3336 23.3924 9.42145 23.1732C9.2261 23.1261 9.04523 23.0156 8.85767 22.9342L8.8469 22.9269C8.83576 22.9176 8.82499 22.9079 8.81384 22.8983L8.81421 22.8987ZM9.2339 20.1797C8.89481 20.1808 8.61812 20.4796 8.61886 20.8441C8.6196 21.2104 8.89481 21.5031 9.23724 21.5023C9.58152 21.5015 9.85079 21.2105 9.84967 20.8406C9.84856 20.4715 9.57558 20.1789 9.2339 20.1797Z" fill="#050404"/>
<path d="M20.2738 22.8903C19.912 22.5787 19.6703 22.1927 19.6019 21.7024C19.4422 20.5585 20.3143 19.5401 21.4248 19.6852C21.8441 19.7401 22.188 19.9439 22.455 20.2817C22.5486 20.3998 22.6225 20.5346 22.7057 20.6616C22.7161 20.6824 22.7265 20.7029 22.7365 20.7237L22.7358 20.7222C22.8041 21.0032 22.8676 21.2827 22.8476 21.5785C22.7807 22.5602 21.9715 23.2891 21.0344 23.1752C20.8045 23.1474 20.585 23.0281 20.3607 22.9509L20.3429 22.9393C20.3198 22.9227 20.2972 22.9065 20.2742 22.8899L20.2738 22.8903ZM20.6753 20.1524C20.3351 20.1516 20.0625 20.4465 20.0617 20.8156C20.061 21.1831 20.3351 21.4819 20.673 21.4823C21.0106 21.4827 21.2896 21.1824 21.2899 20.8179C21.2899 20.4519 21.0144 20.1531 20.6753 20.1524Z" fill="#050404"/>
<path d="M14.1018 24.1797C14.0097 24.072 13.8927 23.977 13.8318 23.8527C13.7634 23.7137 13.7226 23.5496 13.7114 23.3933C13.6977 23.201 13.8306 23.0539 14.0089 23.0072C14.1816 22.962 14.3788 23.0319 14.4375 23.2149C14.5062 23.4303 14.6384 23.4438 14.8141 23.4415C15.3296 23.435 15.8455 23.4392 16.3617 23.4392C16.3892 23.3713 16.4078 23.3253 16.4263 23.2794C16.4917 23.1145 16.6065 23.0153 16.7803 23.008C16.953 23.0006 17.0785 23.0844 17.1561 23.245C17.1706 23.2751 17.1836 23.306 17.197 23.3369C17.1896 23.4215 17.1903 23.5075 17.1736 23.5898C17.0796 24.0484 16.8059 24.2673 16.358 24.2642C15.7753 24.2604 15.1922 24.27 14.6095 24.2654C14.4557 24.2642 14.3019 24.2314 14.1482 24.2133L14.1404 24.2094C14.1278 24.1997 14.1148 24.1897 14.1021 24.1797H14.1018Z" fill="#050404"/>
<path d="M23.3694 24.0538C23.5176 24.0538 23.6658 24.0526 23.814 24.0538C24.1835 24.0568 24.4543 24.2997 24.4762 24.6344C24.5074 25.1177 24.2247 25.3517 23.8697 25.3806C23.5343 25.4077 23.1945 25.4003 22.858 25.3829C22.484 25.3633 22.2403 25.0644 22.2493 24.6838C22.2578 24.3279 22.5902 24.0294 22.9007 24.0514C23.0563 24.0626 23.2134 24.0534 23.3698 24.0534L23.3694 24.0538Z" fill="#FFC9B4"/>
<path d="M7.44702 25.439C7.2992 25.439 7.15139 25.4421 7.00357 25.4382C6.82678 25.4332 6.66448 25.3826 6.53041 25.256C6.34248 25.078 6.26151 24.7758 6.36291 24.531C6.46244 24.2905 6.63923 24.1195 6.90292 24.1098C7.26392 24.0963 7.6264 24.0921 7.98666 24.1114C8.23216 24.1249 8.41525 24.2685 8.50773 24.5163C8.60207 24.77 8.57087 24.9931 8.3848 25.1989C8.23327 25.3664 8.06131 25.451 7.84107 25.4402C7.70997 25.434 7.57812 25.439 7.44702 25.439Z" fill="#FFC9B4"/>
<path d="M8.85791 22.9343C9.04547 23.0157 9.22671 23.1261 9.42169 23.1732C10.3338 23.3925 11.2163 22.7602 11.3856 21.7942C11.4514 21.4201 11.3812 21.0681 11.2824 20.7152C11.4232 20.7646 11.47 20.897 11.5186 21.0202C11.7574 21.6221 11.7195 22.2089 11.3801 22.7555C11.1506 23.1257 10.8193 23.3771 10.4026 23.4844C9.88854 23.6168 9.43023 23.4717 9.01724 23.1505C8.95002 23.098 8.91028 23.0072 8.85791 22.9343Z" fill="#EED7C3"/>
<path d="M20.3602 22.9512C20.5845 23.0284 20.804 23.1474 21.0339 23.1755C21.9709 23.2894 22.7802 22.5605 22.8471 21.5788C22.8671 21.2831 22.8036 21.0036 22.7353 20.7225C22.7783 20.7542 22.8378 20.7754 22.8623 20.8187C23.2311 21.4669 23.1538 22.4304 22.6123 22.9964C22.0697 23.5635 21.1375 23.6689 20.4976 23.1647C20.4315 23.1126 20.3345 23.0717 20.3602 22.9512Z" fill="#EED7C3"/>
<path d="M14.1473 24.2133C14.3011 24.2314 14.4545 24.2642 14.6086 24.2654C15.1913 24.27 15.7744 24.2607 16.3572 24.2642C16.8051 24.2669 17.0792 24.048 17.1728 23.5898C17.1895 23.5075 17.1887 23.4215 17.1962 23.3369C17.4379 23.5114 17.4806 23.6253 17.4123 23.9148C17.3035 24.3773 17.0702 24.5673 16.6097 24.5673C15.9691 24.5673 15.3288 24.5719 14.6881 24.5653C14.4463 24.5626 14.2409 24.4742 14.147 24.2136L14.1473 24.2133Z" fill="#EED7C3"/>
<path d="M20.2739 22.8903C20.297 22.9069 20.32 22.9235 20.3426 22.9397C20.3196 22.9231 20.297 22.9069 20.2739 22.8903Z" fill="#EED7C3"/>
<path d="M22.7364 20.7237C22.726 20.7028 22.7156 20.6823 22.7056 20.6615C22.716 20.6823 22.7264 20.7028 22.7364 20.7237Z" fill="#EED7C3"/>
<path d="M8.81396 22.8987C8.82511 22.9083 8.83625 22.9176 8.84702 22.9272C8.83588 22.9176 8.82511 22.9083 8.81396 22.8987Z" fill="#EED7C3"/>
<path d="M11.2316 20.6124C11.2209 20.5951 11.2101 20.5777 11.1997 20.5599C11.2105 20.5773 11.2212 20.5947 11.2316 20.6124Z" fill="#EED7C3"/>
<path d="M10.8782 4.25533C10.7687 4.19703 10.6803 4.15187 10.5937 4.10284C10.2476 3.90788 10.0582 3.46893 10.1492 3.0767C10.18 2.94351 10.3427 2.80646 10.4968 2.79102C10.5622 2.78445 10.6283 2.78909 10.6944 2.78909C11.6823 2.78909 12.6702 2.79179 13.6581 2.78754C13.8602 2.78677 14.0552 2.77944 14.1592 3.04234C14.1993 2.81843 14.1959 2.61266 14.2758 2.4509C14.3579 2.28451 14.5038 2.13627 14.6531 2.02663C14.808 1.91351 15.0097 1.91158 15.2013 1.92123C15.4813 1.93552 15.6674 2.11194 15.8368 2.31694C16.0132 2.53043 15.9697 2.79526 15.982 3.08944C16.0254 3.03423 16.0451 3.01184 16.0622 2.98713C16.1662 2.83657 16.2999 2.78252 16.4841 2.78445C17.5133 2.79372 18.5424 2.7887 19.5715 2.78909C19.9247 2.78909 20.1238 3.0435 20.0681 3.40755C20.0157 3.74959 19.8148 3.9793 19.5418 4.13797C19.4081 4.21556 19.3361 4.3032 19.2975 4.45492C19.2217 4.75218 18.9925 4.93402 18.7797 5.12048C18.7374 5.15754 18.6549 5.15291 18.5907 5.15368C18.3274 5.15716 18.0637 5.15754 17.8003 5.15368C17.6871 5.15214 17.6005 5.16912 17.5329 5.28687C17.4345 5.45828 17.2852 5.53395 17.0772 5.52159C16.7575 5.50268 16.4355 5.51889 16.1146 5.52159C16.0993 5.52159 16.0841 5.53163 16.0388 5.54746C16.0347 5.63393 16.028 5.73277 16.0258 5.83121C16.0202 6.0891 15.9348 6.31687 15.7744 6.5099C15.6518 6.65698 15.4969 6.74887 15.3012 6.74616C15.1942 6.74462 15.0858 6.73381 14.9803 6.7481C14.6943 6.78747 14.5094 6.62996 14.3601 6.41145C14.2245 6.21302 14.148 5.98949 14.1491 5.74165C14.1491 5.68258 14.1424 5.62313 14.1372 5.54244C14.0726 5.53356 14.011 5.51812 13.9489 5.51735C13.6856 5.51464 13.4216 5.50422 13.159 5.52005C12.9603 5.53202 12.798 5.48183 12.6914 5.30733C12.6089 5.17183 12.4997 5.14635 12.3579 5.15214C12.1113 5.16217 11.8639 5.15059 11.6169 5.15638C11.4751 5.15986 11.3625 5.1089 11.2641 5.00621C11.065 4.79889 10.8615 4.59583 10.8779 4.25494L10.8782 4.25533ZM15.6849 3.05585C15.6927 3.03655 15.7001 3.01725 15.7079 2.99833C15.771 2.72732 15.6782 2.50881 15.4758 2.34705C15.2811 2.19186 15.0624 2.1575 14.8355 2.28374C14.6962 2.332 14.5989 2.42658 14.5439 2.56826C14.3787 2.90722 14.4407 3.17321 14.7397 3.40678C15.1311 3.6693 15.5601 3.5087 15.6878 3.0516L15.6852 3.05624L15.6849 3.05585ZM16.1706 3.3647C16.0384 3.55 15.9066 3.73531 15.7744 3.92062C15.6741 3.97698 15.6496 4.1538 15.4694 4.11519C15.449 4.01636 15.4275 3.91406 15.4056 3.80905H14.7898C14.7664 3.92371 14.7463 4.02138 14.7278 4.11287C14.5848 4.15457 14.5365 4.04802 14.48 3.97158C14.281 3.70172 14.0845 3.42994 13.8944 3.15275C13.8398 3.07322 13.7881 3.0269 13.6938 3.05971C13.6329 3.05971 13.5716 3.05971 13.5107 3.05933C13.3254 3.05933 13.1404 3.05933 12.9551 3.05933C12.1863 3.05624 11.4171 3.05006 10.6483 3.0516C10.4615 3.0516 10.4173 3.11723 10.4073 3.34539C10.4604 3.77392 10.7609 3.92332 11.1185 4.00825C11.1219 4.07504 11.1233 4.13411 11.1278 4.19279C11.1605 4.6244 11.4539 4.90892 11.8661 4.90931C12.1774 4.90931 12.4882 4.90931 12.7965 4.90931C12.8206 4.95679 12.8418 4.98459 12.85 5.01624C12.9042 5.22008 13.0271 5.30656 13.2336 5.29112C13.4138 5.2776 13.5954 5.28842 13.7762 5.28842C13.9794 5.28842 14.1829 5.28842 14.4125 5.28842C14.4125 5.42547 14.3965 5.53742 14.4158 5.64243C14.4507 5.83275 14.48 6.03273 14.5599 6.20453C14.7073 6.52109 15.2737 6.60796 15.5263 6.37053C15.5623 6.33694 15.5905 6.29255 15.6162 6.24931C15.7216 6.07095 15.7796 5.87754 15.7785 5.66636C15.7777 5.549 15.7785 5.43164 15.7785 5.28842C15.8865 5.28842 15.9668 5.28842 16.0466 5.28842C16.3593 5.28842 16.672 5.27992 16.9844 5.2915C17.1705 5.29845 17.2796 5.21777 17.3391 5.04366C17.3524 5.00466 17.3703 4.96683 17.3888 4.92205C17.4587 4.9178 17.5233 4.91085 17.5879 4.91047C17.8757 4.90931 18.1639 4.91664 18.4514 4.90583C18.5443 4.90236 18.6542 4.87881 18.7248 4.82167C18.9261 4.65953 19.0549 4.44372 19.0746 4.17001C19.0787 4.11249 19.0858 4.05535 19.0906 4.00362C19.381 3.92718 19.644 3.838 19.7383 3.51256C19.797 3.38361 19.8553 3.25467 19.7283 3.13113C19.6618 3.02072 19.5548 3.05276 19.4598 3.05238C18.522 3.0489 17.5838 3.05701 16.6464 3.04002C16.3931 3.03539 16.2412 3.11723 16.1706 3.36508V3.3647Z" fill="#0A142F"/>
<path d="M7.85779 9.63493C7.9187 9.56467 7.9577 9.49981 8.01304 9.45889C8.17311 9.3396 8.33096 9.21182 8.50588 9.11994C8.86465 8.93115 9.23234 8.75974 9.59965 8.58872C10.0973 8.35709 10.6329 8.25787 11.1603 8.13549C11.655 8.02083 12.1538 7.922 12.6544 7.84247C13.0421 7.78109 13.4355 7.73862 13.8273 7.72588C14.7632 7.69539 15.7002 7.66759 16.6362 7.67801C17.1498 7.6838 17.6627 7.76642 18.176 7.81854C19.0168 7.90386 19.8398 8.09457 20.6625 8.28683C21.6601 8.52 22.6149 8.87749 23.5256 9.36122C23.6092 9.40562 23.6853 9.46546 23.7652 9.51796C23.7588 9.5334 23.7522 9.54884 23.7458 9.5639C23.6942 9.55734 23.6392 9.56004 23.591 9.54267C23.1108 9.36778 22.6394 9.1597 22.1507 9.0184C21.3462 8.78638 20.5332 8.58331 19.7184 8.39376C19.1843 8.26945 18.641 8.18491 18.1002 8.09341C17.8826 8.05673 17.6605 8.04747 17.4399 8.02894C17.0399 7.99574 16.6402 7.94632 16.2399 7.93821C15.7727 7.92856 15.3047 7.9552 14.8371 7.96678C14.7714 7.96833 14.7056 7.97528 14.6399 7.97528C14.0159 7.97528 13.3976 8.04322 12.7788 8.12391C11.6453 8.27177 10.5356 8.52464 9.45221 8.89911C8.99204 9.05817 8.55751 9.28208 8.14748 9.55425C8.01527 9.64188 8.01601 9.64304 7.85742 9.63532L7.85779 9.63493Z" fill="#021031"/>
<path d="M25.6878 11.2048C25.6458 11.2422 25.5968 11.2746 25.5633 11.319C25.5288 11.3654 25.5047 11.4221 25.4839 11.4773C25.3472 11.8441 25.1214 11.9402 24.6668 11.8807C24.6571 11.7448 24.6478 11.6086 24.6382 11.4727C24.6679 11.4472 24.7121 11.4279 24.7255 11.3955C24.8369 11.1217 25.0527 10.9418 25.2532 10.748C25.544 10.7504 25.6372 10.9557 25.6878 11.2048Z" fill="#FEBD27"/>
<path d="M25.2532 10.7479C25.0527 10.9421 24.8369 11.1216 24.7255 11.3953C24.7121 11.4282 24.6683 11.4471 24.6382 11.4726C24.6709 11.334 24.6879 11.1892 24.7392 11.0587C24.8384 10.8066 24.9951 10.7209 25.2532 10.7479Z" fill="#F8D069"/>
<path d="M9.23369 20.1797C9.57538 20.1785 9.84872 20.4715 9.84947 20.8406C9.85058 21.2108 9.58132 21.5015 9.23703 21.5023C8.8946 21.5031 8.6194 21.2105 8.61865 20.8441C8.61791 20.4797 8.89423 20.1808 9.23369 20.1797Z" fill="#FDFAEB"/>
<path d="M20.6756 20.1523C21.0143 20.1531 21.2906 20.4523 21.2902 20.8179C21.2902 21.1823 21.0109 21.4827 20.6733 21.4823C20.335 21.4819 20.0613 21.1831 20.062 20.8156C20.0628 20.4465 20.3357 20.1516 20.6756 20.1523Z" fill="#FDFAEB"/>
<path d="M13.694 3.06009C13.7887 3.02728 13.8404 3.07361 13.8946 3.15313C14.0844 3.42994 14.2808 3.70211 14.4803 3.97196C14.5364 4.04801 14.585 4.15495 14.728 4.11326C14.7466 4.02176 14.7666 3.92409 14.79 3.80943H15.4058C15.4277 3.91444 15.4489 4.01713 15.4697 4.11557C15.6498 4.15379 15.6743 3.97736 15.775 3.921C15.9882 3.85344 16.0602 3.64613 16.1772 3.48283C16.2741 3.37357 16.3417 3.24617 16.5263 3.2454C17.4778 3.24154 18.4294 3.22108 19.3813 3.2068C19.4388 3.20602 19.4982 3.21645 19.5532 3.20409C19.6141 3.1902 19.6706 3.15622 19.7293 3.13074C19.8559 3.25428 19.798 3.38322 19.7393 3.51217C19.7077 3.5195 19.6691 3.51719 19.6457 3.53572C19.4592 3.6828 19.2483 3.72064 19.0191 3.71793C18.4349 3.71137 17.8504 3.71562 17.2661 3.71562C17.2086 3.71562 17.1436 3.70095 17.0957 3.72411C17.0463 3.74805 16.9972 3.80403 16.9813 3.85692C16.9742 3.87969 17.0455 3.94802 17.0908 3.96308C17.151 3.98277 17.2212 3.97157 17.2869 3.97157C17.7642 3.97157 18.2418 3.96887 18.7191 3.97312C18.9567 3.97505 19.0214 4.07079 18.9281 4.29123C18.8906 4.38041 18.8245 4.46573 18.7521 4.52827C18.6162 4.64524 18.4542 4.69466 18.273 4.69311C17.6806 4.68771 17.0879 4.68964 16.4955 4.69234C16.4038 4.69273 16.2927 4.65644 16.2392 4.79001C16.2708 4.9066 16.3503 4.9483 16.4602 4.94791C16.5921 4.94714 16.7235 4.94714 16.8554 4.94791C16.9657 4.94868 17.0764 4.95177 17.2041 4.9537C17.0983 5.14827 17.0983 5.15136 16.9297 5.15252C16.6006 5.15484 16.2712 5.15252 15.9421 5.15291C15.6383 5.15329 15.6335 5.1587 15.6316 5.46291C15.6312 5.54861 15.6279 5.63432 15.632 5.71964C15.6413 5.9034 15.5655 6.0528 15.4541 6.18291C15.1945 6.48673 14.744 6.39176 14.6337 6.00223C14.5813 5.81692 14.5598 5.61965 14.5468 5.42585C14.5297 5.17105 14.5252 5.15445 14.2719 5.15329C13.9262 5.15175 13.5808 5.15252 13.235 5.15329C13.115 5.15329 13.0058 5.14017 12.9839 4.94752C13.1886 4.94752 13.3832 4.94791 13.5782 4.94752C13.6602 4.94752 13.7453 4.95756 13.8237 4.93864C13.8686 4.92783 13.9254 4.87494 13.9366 4.83016C13.9562 4.75102 13.8968 4.70508 13.8233 4.69659C13.7583 4.68887 13.6918 4.69118 13.6261 4.69118C13.05 4.69118 12.474 4.68771 11.8976 4.69311C11.6941 4.69504 11.5332 4.61474 11.3914 4.47152C11.2848 4.36419 11.2071 4.22714 11.2517 4.08507C11.2978 3.93837 11.4549 3.97273 11.5752 3.97235C12.0525 3.9708 12.5301 3.97273 13.0073 3.9708C13.0931 3.9708 13.1934 3.99821 13.2439 3.87313C13.2016 3.71755 13.0812 3.71446 12.9535 3.71446C12.3362 3.716 11.7189 3.72025 11.1017 3.71291C10.8491 3.70983 10.6092 3.65578 10.4907 3.37666C10.5825 3.35273 10.6742 3.3091 10.7663 3.30833C11.3802 3.30254 11.9941 3.30678 12.6081 3.30601C12.952 3.30563 13.2959 3.30524 13.6394 3.2952C13.6937 3.29366 13.746 3.23923 13.7995 3.20911C13.7646 3.15931 13.7301 3.10951 13.6951 3.05971L13.694 3.06009Z" fill="#FEBD27"/>
<path d="M10.4892 3.37734C10.6077 3.65646 10.8476 3.71051 11.1001 3.71359C11.7174 3.72093 12.3347 3.71668 12.9519 3.71514C13.0797 3.71514 13.2 3.71823 13.2424 3.87381C13.1922 3.99889 13.0916 3.97109 13.0058 3.97148C12.5285 3.97341 12.0509 3.97148 11.5737 3.97303C11.4533 3.97303 11.2962 3.93905 11.2502 4.08575C11.2056 4.22782 11.2832 4.36449 11.3898 4.4722C11.5317 4.61504 11.6925 4.69572 11.896 4.69379C12.4721 4.68839 13.0481 4.69148 13.6245 4.69186C13.6903 4.69186 13.7568 4.68954 13.8217 4.69727C13.8953 4.70576 13.9547 4.7517 13.935 4.83084C13.9239 4.87562 13.8667 4.9289 13.8221 4.93932C13.7438 4.95785 13.6587 4.94782 13.5766 4.9482C13.382 4.94897 13.187 4.9482 12.9824 4.9482C13.0043 5.14123 13.1135 5.15436 13.2334 5.15397C13.5792 5.1532 13.9246 5.15243 14.2704 5.15397C14.5237 5.15513 14.5281 5.17173 14.5452 5.42653C14.5582 5.61994 14.5798 5.8176 14.6321 6.00291C14.7424 6.39282 15.1929 6.48779 15.4526 6.18358C15.5636 6.05348 15.6397 5.90408 15.6305 5.72031C15.626 5.635 15.6293 5.54929 15.6301 5.46359C15.6319 5.15938 15.6364 5.15436 15.9406 5.15358C16.2696 5.15281 16.5991 5.15513 16.9281 5.1532C17.0967 5.15204 17.0967 5.14895 17.2026 4.95438C17.0748 4.95206 16.9641 4.94936 16.8538 4.94859C16.722 4.94743 16.5905 4.94743 16.4587 4.94859C16.3487 4.94936 16.2696 4.90728 16.2377 4.79069C16.2912 4.65712 16.4026 4.69379 16.494 4.69302C17.0863 4.69032 17.6791 4.68839 18.2715 4.69379C18.4527 4.69534 18.615 4.64592 18.7506 4.52895C18.823 4.4664 18.8891 4.38109 18.9266 4.29191C19.0198 4.07147 18.9552 3.97573 18.7175 3.9738C18.2403 3.96955 17.7627 3.97264 17.2854 3.97225C17.2197 3.97225 17.1495 3.98345 17.0893 3.96376C17.0436 3.9487 16.9727 3.88037 16.9797 3.85759C16.9957 3.8047 17.0447 3.74873 17.0941 3.72479C17.142 3.70163 17.207 3.7163 17.2646 3.7163C17.8488 3.7163 18.4334 3.71166 19.0176 3.71861C19.2468 3.72132 19.4577 3.6831 19.6442 3.5364C19.6676 3.51787 19.7062 3.52018 19.7377 3.51284C19.6434 3.83829 19.3805 3.92747 19.09 4.00391C19.0848 4.05564 19.0781 4.11278 19.0741 4.1703C19.0544 4.44401 18.9255 4.65943 18.7242 4.82196C18.6536 4.87871 18.5441 4.90265 18.4509 4.90612C18.1634 4.91655 17.8752 4.90921 17.5874 4.91076C17.5227 4.91076 17.4577 4.91809 17.3883 4.92234C17.3697 4.96751 17.3519 5.00495 17.3385 5.04395C17.2791 5.21806 17.1699 5.29874 16.9838 5.29179C16.6715 5.28021 16.3588 5.2887 16.0461 5.2887C15.9658 5.2887 15.886 5.2887 15.7779 5.2887C15.7779 5.43193 15.7775 5.54929 15.7779 5.66665C15.779 5.87783 15.7211 6.07124 15.6156 6.2496C15.59 6.29284 15.5617 6.33723 15.5257 6.37082C15.2735 6.60786 14.7068 6.52138 14.5593 6.20482C14.4795 6.03302 14.4505 5.83343 14.4152 5.64272C14.3959 5.53771 14.4119 5.42575 14.4119 5.2887C14.1824 5.2887 13.9788 5.2887 13.7757 5.2887C13.5948 5.2887 13.4128 5.27789 13.2331 5.29141C13.0266 5.30685 12.904 5.22076 12.8494 5.01653C12.8409 4.98488 12.8201 4.95708 12.7959 4.9096C12.4877 4.9096 12.1765 4.9096 11.8656 4.9096C11.4537 4.9096 11.1599 4.62469 11.1273 4.19308C11.1228 4.1344 11.1213 4.07533 11.118 4.00854C10.7599 3.92361 10.4598 3.77421 10.4067 3.34607C10.4339 3.35649 10.4613 3.36692 10.4884 3.37734H10.4892Z" fill="#FBA126"/>
<path d="M14.835 2.2837C15.0619 2.15746 15.281 2.19182 15.4753 2.34701C15.6781 2.50877 15.7705 2.72728 15.7074 2.99829C15.6996 3.01759 15.6922 3.0369 15.6844 3.05581L15.687 3.05118C15.6313 3.08592 15.573 3.11719 15.5206 3.15657C15.287 3.33261 15.0218 3.39786 14.7392 3.40635C14.4402 3.17279 14.3778 2.90679 14.5434 2.56822C14.5813 2.7794 14.6593 2.84502 14.7834 2.75893C14.8781 2.6933 14.9661 2.61378 15.0463 2.52923C15.1277 2.44314 15.0942 2.32616 14.9821 2.29026C14.9368 2.27559 14.8844 2.28524 14.8354 2.2837H14.835Z" fill="#FEBD27"/>
<path d="M10.4894 3.37743C10.4623 3.367 10.4348 3.35658 10.4077 3.34616C10.4177 3.11761 10.4616 3.05275 10.6488 3.05237C11.4175 3.05082 12.1867 3.057 12.9555 3.06009C13.1408 3.06009 13.3258 3.06009 13.5107 3.06009C13.5717 3.06009 13.6329 3.06009 13.6938 3.06048C13.7284 3.11028 13.7633 3.16008 13.7978 3.20988C13.7447 3.23999 13.692 3.29443 13.6378 3.29597C13.2942 3.30639 12.9503 3.30639 12.6064 3.30678C11.9925 3.30755 11.3785 3.30331 10.7646 3.3091C10.6725 3.30987 10.5808 3.35349 10.4891 3.37743H10.4894Z" fill="#F9DF97"/>
<path d="M19.7284 3.13072C19.6701 3.1562 19.6133 3.19018 19.5524 3.20407C19.4974 3.21643 19.438 3.206 19.3804 3.20678C18.4289 3.22106 17.4774 3.24152 16.5255 3.24538C16.3409 3.24615 16.2733 3.37355 16.1764 3.48242C16.1745 3.44304 16.1723 3.40367 16.1704 3.36467C16.241 3.11683 16.3932 3.03498 16.6462 3.03961C17.584 3.0566 18.5217 3.04888 19.4595 3.05197C19.5542 3.05197 19.6616 3.02031 19.728 3.13072H19.7284Z" fill="#F9DF97"/>
<path d="M14.8349 2.28369C14.8839 2.28523 14.9363 2.27558 14.9816 2.29025C15.0938 2.32615 15.1272 2.44313 15.0458 2.52922C14.966 2.61376 14.8776 2.69329 14.7829 2.75892C14.6588 2.84501 14.5812 2.77938 14.543 2.56821C14.5979 2.42653 14.6956 2.33194 14.8345 2.28369H14.8349Z" fill="#F9DF97"/>
<path d="M14.7393 3.40632C15.0219 3.39783 15.2874 3.33258 15.5207 3.15654C15.573 3.11716 15.6314 3.08589 15.6871 3.05115C15.5597 3.50824 15.1307 3.66922 14.7393 3.40632Z" fill="#FBA126"/>
<path d="M16.1707 3.36462C16.1726 3.404 16.1748 3.44299 16.1766 3.48237C16.06 3.64567 15.988 3.85298 15.7744 3.92054C15.9066 3.73524 16.0385 3.54993 16.1707 3.36462Z" fill="#F8D069"/>
<path d="M15.6851 3.05581C15.6929 3.03651 15.7003 3.01721 15.7081 2.99829C15.7003 3.01759 15.6929 3.0369 15.6851 3.05581Z" fill="#FBA126"/>
</svg>
