<svg width="32" height="32" viewBox="0 0 32 32" fill="none" xmlns="http://www.w3.org/2000/svg">
<path d="M15.8639 0.000260305C14.5398 0.00629113 13.2754 0.116986 12.1628 0.309971C8.88537 0.877574 8.29031 2.06562 8.29031 4.25657V7.15015H16.0354V8.11468H8.29031H5.38365C3.13271 8.11468 1.16173 9.44094 0.545235 11.9639C-0.165888 14.8559 -0.19743 16.6605 0.545235 19.6802C1.09578 21.9279 2.41056 23.5294 4.6615 23.5294H7.32443V20.0607C7.32443 17.5547 9.53628 15.3442 12.1628 15.3442H19.8989C22.0523 15.3442 23.7714 13.6061 23.7714 11.4861V4.25657C23.7714 2.199 22.0007 0.65337 19.8989 0.309971C18.5684 0.0928619 17.1879 -0.00577061 15.8639 0.000260305ZM11.6754 2.32751C12.4754 2.32751 13.1287 2.97841 13.1287 3.77873C13.1287 4.57621 12.4754 5.2211 11.6754 5.2211C10.8725 5.2211 10.2221 4.57621 10.2221 3.77873C10.2221 2.97841 10.8725 2.32751 11.6754 2.32751Z" fill="url(#paint0_linear_573_18)"/>
<path d="M24.6421 8.47058V11.8163C24.6421 14.4103 22.3861 16.5935 19.8135 16.5935H12.0932C9.97846 16.5935 8.22852 18.3578 8.22852 20.4222V27.5968C8.22852 29.6387 10.05 30.8397 12.0932 31.4255C14.5399 32.1268 16.8861 32.2535 19.8135 31.4255C21.7594 30.8763 23.6782 29.771 23.6782 27.5968V24.7252H15.9579V23.768H23.6782H27.5429C29.7892 23.768 30.6263 22.2406 31.4075 19.948C32.2145 17.5879 32.1802 15.3182 31.4075 12.2905C30.8524 10.1106 29.7921 8.47058 27.5429 8.47058H24.6421ZM20.3 26.6396C21.1012 26.6396 21.7504 27.2796 21.7504 28.071C21.7504 28.8652 21.1012 29.5111 20.3 29.5111C19.5016 29.5111 18.8496 28.8652 18.8496 28.071C18.8496 27.2796 19.5016 26.6396 20.3 26.6396Z" fill="url(#paint1_linear_573_18)"/>
<defs>
<linearGradient id="paint0_linear_573_18" x1="-9.64461e-08" y1="-8.21278e-08" x2="17.5591" y2="15.2638" gradientUnits="userSpaceOnUse">
<stop stop-color="#5A9FD4"/>
<stop offset="1" stop-color="#306998"/>
</linearGradient>
<linearGradient id="paint1_linear_573_18" x1="20.1142" y1="27.8295" x2="13.9345" y2="18.946" gradientUnits="userSpaceOnUse">
<stop stop-color="#FFD43B"/>
<stop offset="1" stop-color="#FFE873"/>
</linearGradient>
</defs>
</svg>
