<svg width="32" height="32" viewBox="0 0 32 32" fill="none" xmlns="http://www.w3.org/2000/svg">
<g clip-path="url(#clip0_573_155)">
<path d="M32 8.08789H0V23.9121H16.1758" fill="url(#paint0_linear_573_155)"/>
<path d="M15.8241 11.2527V18.7077L13.0812 11.2527H10.3384L8.01748 17.4417C7.73616 15.8945 6.11858 15.3319 4.85264 14.9099C4.00869 14.6286 3.0944 14.2769 3.0944 13.7846C3.0944 13.433 3.58671 13.0813 4.501 13.1516C5.13396 13.222 5.6966 13.222 6.82188 13.7846L7.94715 11.8857C6.8922 11.3231 5.48561 11.0417 4.36034 11.0417C3.02407 11.0417 1.8988 11.4637 1.1955 12.167C0.703194 12.6593 0.492205 13.2923 0.421875 13.9956C0.421875 14.9802 0.773523 15.6835 1.54715 16.2461C2.18012 16.6681 2.95374 16.9494 3.65704 17.1604C4.57133 17.4417 5.27462 17.7231 5.27462 18.2154C5.20429 18.8483 4.501 18.989 4.00869 18.989C3.16473 19.0593 2.46144 18.9187 1.40649 18.2857L0.421875 20.1846C1.47682 20.8176 2.60209 21.0989 3.93836 21.0989C4.85264 21.0989 6.25924 20.8176 7.03286 20.1143L6.8922 20.7472H9.56473L10.057 19.5516C11.112 19.833 12.3076 19.9033 13.3625 19.5516L13.7142 20.7472H18.4966V17.9341H19.4812C21.9428 17.9341 23.4197 16.7385 23.4197 14.6286C23.4197 12.2374 22.0131 11.2527 18.9889 11.2527H15.8241ZM10.69 17.4417L11.6746 14.2769H11.745L12.7296 17.4417C12.0263 17.6527 11.323 17.6527 10.69 17.4417ZM18.4966 15.8242V13.2923H19.1999C20.1142 13.2923 20.8175 13.5736 20.8175 14.4879C20.8175 15.4725 20.1142 15.8242 19.1999 15.8242H18.4966Z" fill="white"/>
</g>
<defs>
<linearGradient id="paint0_linear_573_155" x1="0" y1="8.08789" x2="0" y2="23.9121" gradientUnits="userSpaceOnUse">
<stop stop-color="#00AAEE"/>
<stop offset="1" stop-color="#0055AA"/>
</linearGradient>
<clipPath id="clip0_573_155">
<rect width="32" height="15.8242" fill="white" transform="translate(0 8.08789)"/>
</clipPath>
</defs>
</svg>
