<svg width="32" height="32" viewBox="0 0 32 32" fill="none" xmlns="http://www.w3.org/2000/svg">
<g clip-path="url(#clip0_573_28)">
<path d="M0 32H32V9.875C31.79 9.73125 31.89 9.36125 31.875 9.125C31.5787 4.50375 27.1875 0.70375 22.875 0H0V32ZM24.375 8C21.1512 13.365 17.78 18.76 14.375 24C12.2337 20.5225 9.615 17.265 7.625 13.75C10.4562 12.0737 13.1762 14.7062 14.375 17.125C15.1937 15.7137 16.0775 14.7312 16.8463 13.2212C17.615 11.7112 18.525 10.9637 19.2812 9.28125C20.0387 7.59875 22.53 7.91625 24.375 8Z" fill="#01AAA4"/>
<path d="M24.375 7.99994C22.53 7.91619 20.0387 7.59869 19.2812 9.28119C18.525 10.9637 17.615 11.7112 16.8463 13.2212C16.0775 14.7312 15.1937 15.7137 14.375 17.1249C13.1762 14.7062 10.4562 12.0737 7.625 13.7499C9.615 17.2649 12.2338 20.5224 14.375 23.9999C17.78 18.7599 21.1512 13.3649 24.375 7.99994Z" fill="#FEFEFE"/>
</g>
<defs>
<clipPath id="clip0_573_28">
<rect width="32" height="32" fill="white"/>
</clipPath>
</defs>
</svg>
