<svg width="32" height="32" viewBox="0 0 32 32" fill="none" xmlns="http://www.w3.org/2000/svg">
<g clip-path="url(#clip0_573_45)">
<path d="M5.3335 17.3334H12.0002" stroke="black" stroke-width="2" stroke-linecap="round" stroke-linejoin="round"/>
<path d="M16 21.3333V10.6666H20C20.7072 10.6666 21.3855 10.9476 21.8856 11.4477C22.3857 11.9478 22.6667 12.626 22.6667 13.3333V14.6666C22.6667 15.3739 22.3857 16.0521 21.8856 16.5522C21.3855 17.0523 20.7072 17.3333 20 17.3333H16" stroke="black" stroke-width="2" stroke-linecap="round" stroke-linejoin="round"/>
<path d="M26.6665 10.6666V21.3333" stroke="black" stroke-width="2" stroke-linecap="round" stroke-linejoin="round"/>
<path d="M12.0002 21.3333V14C12.0002 13.1159 11.649 12.2681 11.0239 11.6429C10.3987 11.0178 9.55088 10.6666 8.66683 10.6666C7.78277 10.6666 6.93493 11.0178 6.30981 11.6429C5.68469 12.2681 5.3335 13.1159 5.3335 14V21.3333" stroke="black" stroke-width="2" stroke-linecap="round" stroke-linejoin="round"/>
</g>
<defs>
<clipPath id="clip0_573_45">
<rect width="32" height="32" fill="white"/>
</clipPath>
</defs>
</svg>
