<svg width="32" height="32" viewBox="0 0 32 32" fill="none" xmlns="http://www.w3.org/2000/svg">
<g clip-path="url(#clip0_573_90)">
<path d="M6.85363 20.1575C6.85363 21.9969 5.36701 23.4835 3.52764 23.4835C1.68827 23.4835 0.20166 21.9969 0.20166 20.1575C0.20166 18.3182 1.68827 16.8315 3.52764 16.8315H6.85363V20.1575ZM8.51662 20.1575C8.51662 18.3182 10.0032 16.8315 11.8426 16.8315C13.682 16.8315 15.1686 18.3182 15.1686 20.1575V28.4725C15.1686 30.3119 13.682 31.7985 11.8426 31.7985C10.0032 31.7985 8.51662 30.3119 8.51662 28.4725V20.1575Z" fill="#E01E5A"/>
<path d="M11.8424 6.80309C10.003 6.80309 8.51643 5.31648 8.51643 3.47711C8.51643 1.63774 10.003 0.151123 11.8424 0.151123C13.6818 0.151123 15.1684 1.63774 15.1684 3.47711V6.80309H11.8424ZM11.8424 8.49128C13.6818 8.49128 15.1684 9.9779 15.1684 11.8173C15.1684 13.6566 13.6818 15.1432 11.8424 15.1432H3.50225C1.66288 15.1432 0.17627 13.6566 0.17627 11.8173C0.17627 9.9779 1.66288 8.49128 3.50225 8.49128H11.8424Z" fill="#36C5F0"/>
<path d="M25.1719 11.8173C25.1719 9.9779 26.6585 8.49128 28.4979 8.49128C30.3372 8.49128 31.8239 9.9779 31.8239 11.8173C31.8239 13.6566 30.3372 15.1432 28.4979 15.1432H25.1719V11.8173ZM23.5089 11.8173C23.5089 13.6566 22.0223 15.1432 20.1829 15.1432C18.3435 15.1432 16.8569 13.6566 16.8569 11.8173V3.47711C16.8569 1.63774 18.3435 0.151123 20.1829 0.151123C22.0223 0.151123 23.5089 1.63774 23.5089 3.47711V11.8173Z" fill="#2EB67D"/>
<path d="M20.1829 25.1465C22.0223 25.1465 23.5089 26.6331 23.5089 28.4725C23.5089 30.3119 22.0223 31.7985 20.1829 31.7985C18.3435 31.7985 16.8569 30.3119 16.8569 28.4725V25.1465H20.1829ZM20.1829 23.4835C18.3435 23.4835 16.8569 21.9969 16.8569 20.1575C16.8569 18.3182 18.3435 16.8315 20.1829 16.8315H28.5231C30.3624 16.8315 31.8491 18.3182 31.8491 20.1575C31.8491 21.9969 30.3624 23.4835 28.5231 23.4835H20.1829Z" fill="#ECB22E"/>
</g>
<defs>
<clipPath id="clip0_573_90">
<rect width="32" height="32" fill="white"/>
</clipPath>
</defs>
</svg>
